<?xml version="1.0" encoding="utf-8"?>
<!-- Generator: Adobe Illustrator 21.0.2, SVG Export Plug-In . SVG Version: 6.00 Build 0)  -->
<svg version="1.1" id="Layer_1" xmlns="http://www.w3.org/2000/svg" xmlns:xlink="http://www.w3.org/1999/xlink" x="0px" y="0px"
	 viewBox="0 0 428.5 139" style="enable-background:new 0 0 428.5 139;" xml:space="preserve">
<style type="text/css">
	.st0{fill:#A0A0A0;}
	.st1{fill:#EF958C;}
</style>
<g>
	<g>
		<path class="st0" d="M158.3,51.1c-1.6,0-2.8-0.4-3.8-1.2c-0.9-0.8-1.4-2-1.4-3.4v-1.7c0-1.4,0.5-2.5,1.4-3.3
			c0.9-0.8,2.2-1.2,3.8-1.2c1.7,0,3,0.4,3.9,1.2c1,0.8,1.4,1.9,1.4,3.3v1.7c0,1.4-0.5,2.6-1.4,3.4C161.2,50.7,159.9,51.1,158.3,51.1
			z M162.3,112.8c0,0.8-0.2,1.4-0.5,1.7c-0.3,0.3-0.9,0.4-1.7,0.4h-3.8c-0.8,0-1.4-0.1-1.7-0.4c-0.3-0.3-0.5-0.8-0.5-1.7v-50
			c0-0.8,0.2-1.4,0.5-1.7c0.3-0.3,0.9-0.4,1.7-0.4h3.8c0.8,0,1.4,0.1,1.7,0.4c0.3,0.3,0.5,0.8,0.5,1.7V112.8z"/>
		<path class="st0" d="M204.2,92.9c-0.8,0-1.4-0.1-1.8-0.4c-0.4-0.2-0.7-0.8-1.1-1.6l-16.4-35.3v57.1c0,0.8-0.2,1.4-0.5,1.7
			c-0.3,0.3-0.9,0.4-1.7,0.4H179c-0.8,0-1.4-0.1-1.7-0.4c-0.3-0.3-0.5-0.8-0.5-1.7V43.3c0-0.8,0.2-1.4,0.5-1.7
			c0.3-0.3,0.9-0.4,1.7-0.4h5.7c0.8,0,1.4,0.1,1.8,0.4c0.4,0.2,0.7,0.8,1.1,1.6l18.8,40.9l19.3-40.9c0.3-0.8,0.7-1.4,1.1-1.6
			c0.4-0.2,1-0.4,1.8-0.4h5.3c0.8,0,1.4,0.1,1.7,0.4c0.3,0.3,0.5,0.8,0.5,1.7v69.4c0,0.8-0.2,1.4-0.5,1.7c-0.3,0.3-0.9,0.4-1.7,0.4
			h-3.7c-0.8,0-1.4-0.1-1.7-0.4c-0.3-0.3-0.5-0.8-0.5-1.7V55.6L211.1,91c-0.3,0.8-0.7,1.4-1.1,1.6c-0.4,0.2-1,0.4-1.8,0.4H204.2z"/>
		<path class="st0" d="M270,81.8c1.4,0,3.1,0.1,5.3,0.2c2.1,0.1,4.3,0.3,6.4,0.6v-6.1c0-3.8-0.9-6.5-2.6-8.2
			c-1.8-1.7-4.6-2.5-8.6-2.5c-3.2,0-5.7,0.5-7.4,1.4c-1.7,0.9-3,2.5-4,4.8c-0.3,0.8-0.6,1.2-0.8,1.4c-0.2,0.2-0.7,0.3-1.5,0.3h-3.7
			c-0.9,0-1.5-0.1-1.8-0.4c-0.3-0.3-0.5-0.8-0.5-1.5c0-1,0.3-2,0.8-3.2c0.6-1.1,1.2-2.2,2.1-3.2c1.8-2.1,4-3.6,6.7-4.6
			c2.7-1,6.1-1.6,10.1-1.6c6.9,0,11.8,1.3,14.9,4c3,2.7,4.5,7,4.5,13.1v21.2c0,6.3-1.5,10.9-4.6,13.9c-3.1,3-8.1,4.5-14.9,4.5h-1.5
			c-7,0-12.2-1.3-15.6-3.9c-3.3-2.6-5-6.8-5-12.6c0-6.1,1.8-10.6,5.3-13.4C257,83.2,262.5,81.8,270,81.8z M270.6,88.6
			c-5.3,0-9,0.8-11,2.5c-2,1.7-3,4.4-3,8.3c0,3.4,0.9,5.8,2.8,7.3c1.9,1.5,5.2,2.3,10,2.3h0.9c4.1,0,7-1,8.7-2.9
			c1.8-2,2.6-5.1,2.6-9.5v-7c-2.1-0.3-4.1-0.5-6.1-0.7C273.5,88.7,271.8,88.6,270.6,88.6z"/>
		<path class="st0" d="M358.6,59.3c5.6,0,9.8,1.6,12.8,4.6c2.9,3.1,4.4,7.6,4.4,13.5v35.3c0,0.8-0.2,1.4-0.5,1.7
			c-0.3,0.3-0.9,0.4-1.7,0.4h-3.8c-0.8,0-1.4-0.1-1.7-0.4c-0.3-0.3-0.5-0.8-0.5-1.7V79.2c0-4.4-0.9-7.6-2.6-9.7c-1.8-2-4.6-3-8.5-3
			c-3.9,0-7.1,1.3-9.5,3.9c-2.4,2.6-3.6,6.2-3.6,10.6v31.7c0,0.8-0.2,1.4-0.5,1.7c-0.3,0.3-0.9,0.4-1.7,0.4h-3.8
			c-0.8,0-1.4-0.1-1.7-0.4c-0.3-0.3-0.5-0.8-0.5-1.7V79.2c0-4.4-0.9-7.6-2.6-9.7c-1.8-2-4.6-3-8.5-3s-7.1,1.3-9.5,3.9
			c-2.4,2.6-3.6,6.2-3.6,10.6v31.7c0,0.8-0.2,1.4-0.5,1.7c-0.3,0.3-0.9,0.4-1.7,0.4h-3.8c-0.8,0-1.4-0.1-1.7-0.4
			c-0.3-0.3-0.5-0.8-0.5-1.7v-50c0-0.8,0.2-1.4,0.5-1.7c0.3-0.3,0.9-0.4,1.7-0.4h3.6c0.8,0,1.4,0.1,1.7,0.4c0.3,0.3,0.5,0.8,0.5,1.7
			v3.6c1.7-2.3,3.8-4,6.5-5.3c2.7-1.2,5.6-1.9,8.9-1.9c7.5,0,12.6,2.8,15.3,8.5c2.2-3,4.6-5.2,7.3-6.5
			C351.5,59.9,354.7,59.3,358.6,59.3z"/>
		<path class="st0" d="M408.7,81.8c1.4,0,3.1,0.1,5.3,0.2c2.1,0.1,4.3,0.3,6.4,0.6v-6.1c0-3.8-0.9-6.5-2.6-8.2
			c-1.8-1.7-4.6-2.5-8.6-2.5c-3.2,0-5.7,0.5-7.4,1.4c-1.7,0.9-3,2.5-4,4.8c-0.3,0.8-0.6,1.2-0.8,1.4c-0.2,0.2-0.7,0.3-1.5,0.3h-3.7
			c-0.9,0-1.5-0.1-1.8-0.4c-0.3-0.3-0.5-0.8-0.5-1.5c0-1,0.3-2,0.8-3.2c0.6-1.1,1.2-2.2,2.1-3.2c1.8-2.1,4-3.6,6.7-4.6
			c2.7-1,6.1-1.6,10.1-1.6c6.9,0,11.8,1.3,14.9,4c3,2.7,4.5,7,4.5,13.1v21.2c0,6.3-1.5,10.9-4.6,13.9c-3.1,3-8.1,4.5-14.9,4.5h-1.5
			c-7,0-12.2-1.3-15.6-3.9c-3.3-2.6-5-6.8-5-12.6c0-6.1,1.8-10.6,5.3-13.4C395.7,83.2,401.2,81.8,408.7,81.8z M409.3,88.6
			c-5.3,0-9,0.8-11,2.5c-2,1.7-3,4.4-3,8.3c0,3.4,0.9,5.8,2.8,7.3c1.9,1.5,5.2,2.3,10,2.3h0.9c4.1,0,7-1,8.7-2.9
			c1.8-2,2.6-5.1,2.6-9.5v-7c-2.1-0.3-4.1-0.5-6.1-0.7C412.2,88.7,410.5,88.6,409.3,88.6z"/>
	</g>
	<path class="st1" d="M83,37.4c0.6-2.4,1-5,1-7.6C84,13.3,70.7,0,54.3,0S24.5,13.3,24.5,29.8c0,2.8,0.4,5.5,1.1,8.1
		C9.8,47.9,0,65.3,0,84.3c0,14.1,5.3,27.5,15.1,37.7c9.3,9.8,21.9,15.8,35.4,16.9c1.4,0.1,2.8,0.2,4.3,0.2c26.8,0,49.5-19.1,54-45.5
		c0.4-2.1,0.6-4.4,0.7-6.6c0-0.4,0-0.8,0-1.2c0-0.3,0-0.6,0-0.9v-0.5C109.5,64.9,99.4,47.2,83,37.4z M54.3,7.5
		c12.3,0,22.3,10,22.3,22.3S66.5,52,54.3,52S32,42,32,29.8S42,7.5,54.3,7.5z M20.5,116.8c-8.4-8.8-13-20.4-13-32.5
		c0-15.9,8-30.6,21.2-39.4c5.2,8.7,14.7,14.6,25.6,14.6c11.1,0,20.8-6.1,25.9-15.1c8.1,5.2,14.3,12.5,18,21.1
		c-3.1-1.7-6.8-2.7-10.6-2.7c-12.1,0-21.9,9.8-21.9,21.9c0,3.9,1,7.5,2.8,10.6c-10.4,9.3-16.7,22.1-17.7,35.9
		C39.2,130.3,28.5,125.2,20.5,116.8z M73.1,84.8c0-8,6.5-14.4,14.4-14.4c8,0,14.4,6.5,14.4,14.4s-6.5,14.4-14.4,14.4
		C79.6,99.2,73.1,92.7,73.1,84.8z M58.2,131.4c1-11.6,6.2-22.3,14.9-30.1c3.9,3.4,8.9,5.5,14.5,5.5c3.6,0,7-0.9,10-2.4
		C90.5,119.6,75.5,130.1,58.2,131.4z"/>
</g>
</svg>
